<?xml version="1.0" standalone="no"?>
<!DOCTYPE svg PUBLIC "-//W3C//DTD SVG 20010904//EN"
 "http://www.w3.org/TR/2001/REC-SVG-20010904/DTD/svg10.dtd">
<svg version="1.0" xmlns="http://www.w3.org/2000/svg"
 width="44.000000pt" height="64.000000pt" viewBox="0 0 44.000000 64.000000"
 preserveAspectRatio="xMidYMid meet">

<g transform="translate(0.000000,64.000000) scale(0.100000,-0.100000)"
fill="#000000" stroke="none">
<path d="M240 522 c0 -5 -10 -14 -22 -20 -22 -10 -22 -10 -2 -9 32 2 81 -22
92 -46 10 -21 11 -21 11 4 1 15 -7 36 -16 47 -20 22 -63 39 -63 24z"/>
<path d="M86 448 c-9 -12 -16 -26 -16 -31 0 -13 34 24 36 39 3 20 -3 17 -20
-8z"/>
<path d="M207 142 c-18 -19 -23 -52 -9 -52 5 0 19 12 33 27 19 22 20 24 2 10
-12 -11 -23 -14 -27 -8 -4 5 4 17 16 25 12 9 18 16 12 16 -6 0 -18 -8 -27 -18z"/>
<path d="M81 134 c0 -11 3 -14 6 -6 3 7 2 16 -1 19 -3 4 -6 -2 -5 -13z"/>
<path d="M86 75 c8 -19 14 -19 14 0 0 8 -4 15 -10 15 -5 0 -7 -7 -4 -15z"/>
<path d="M100 21 c0 -6 4 -13 10 -16 6 -3 7 1 4 9 -7 18 -14 21 -14 7z"/>
</g>
</svg>
